<?xml version="1.0" encoding="UTF-8" standalone="no"?>
<svg
   xmlns:dc="http://purl.org/dc/elements/1.1/"
   xmlns:cc="http://creativecommons.org/ns#"
   xmlns:rdf="http://www.w3.org/1999/02/22-rdf-syntax-ns#"
   xmlns:svg="http://www.w3.org/2000/svg"
   xmlns="http://www.w3.org/2000/svg"
   viewBox="0 0 119.4 38.346668"
   height="38.346668"
   width="119.4"
   xml:space="preserve"
   id="svg2"
   version="1.1"><metadata
     id="metadata8"><rdf:RDF><cc:Work
         rdf:about=""><dc:format>image/svg+xml</dc:format><dc:type
           rdf:resource="http://purl.org/dc/dcmitype/StillImage" /></cc:Work></rdf:RDF></metadata><defs
     id="defs6" /><g
     transform="matrix(1.3333333,0,0,-1.3333333,0,38.346667)"
     id="g10"><g
       transform="scale(0.1)"
       id="g12"><path
         id="path14"
         style="fill:#37a984;fill-opacity:1;fill-rule:nonzero;stroke:none"
         d="m 711.836,0.890625 h 4.742 V 16.2813 h 7.551 c 8.906,0 11.187,5.3593 11.187,9.7578 0,4.3906 -2.281,9.7617 -11.187,9.7617 h -12.293 z m 4.742,30.769575 h 6.207 c 3.75,0 7.5,-0.8907 7.5,-5.6211 0,-4.7383 -3.75,-5.6289 -7.5,-5.6289 h -6.207 z M 746.309,0.890625 h 5.519 l 3.457,8.628905 h 16.621 l 3.473,-8.628905 h 5.539 L 765.977,35.8008 h -4.289 z m 10.66,12.769575 6.597,16.0195 h 0.102 l 6.5,-16.0195 z M 798.777,0.890625 h 4.719 V 16.2813 h 5.281 l 8.879,-15.390675 h 5.922 L 813.676,16.8203 c 5.262,0.5899 8.562,4.7813 8.562,9.2188 0,4.3906 -2.269,9.7617 -11.179,9.7617 h -12.282 z m 4.719,30.769575 h 6.223 c 3.75,0 7.5,-0.8907 7.5,-5.6211 0,-4.7383 -3.75,-5.6289 -7.5,-5.6289 h -6.223 z M 842.219,0.890625 h 4.738 V 35.8008 h -4.738 z m 24.16,3.937505 C 868.719,1.53125 873.027,0 877.516,0 c 6.711,0 12.132,4.03906 12.132,10.8008 0,12.5703 -17.203,7.3008 -17.203,16.1289 0,2.1719 1.582,5.3203 6.801,5.3203 2.723,0 5.031,-1.2305 6.211,-3.0586 l 3.84,3.5078 c -2.609,3.1992 -6.25,3.9805 -10.051,3.9805 -8.391,0 -11.82,-5.6602 -11.82,-9.75 0,-13.6211 17.203,-8.6406 17.203,-16.6797 0,-3.83984 -3.844,-5.82031 -6.961,-5.82031 -2.801,0 -5.711,1.1914 -7.391,3.75 l -3.898,-3.35156" /><path
         id="path16"
         style="fill:#37a984;fill-opacity:1;fill-rule:nonzero;stroke:none"
         d="M 134.648,287.629 C 60.2813,287.629 0,227.34 0,152.98 0,78.6172 60.2813,18.3398 134.648,18.3398 c 74.364,0 134.641,60.2774 134.641,134.6402 0,74.36 -60.277,134.649 -134.641,134.649 m 84.602,-78.051 c 0,0 -4.359,-21.68 -18.309,-34.75 -12.91,-12.07 -37.64,-12.48 -37.64,-12.48 0,0 2.808,18.172 21.129,34.871 17.48,15.918 34.82,12.359 34.82,12.359 m -51.879,16.961 c 8.32,15.25 21.199,16.961 21.199,16.961 0,0 2.2,-16.082 -4.332,-28.512 -6.047,-11.48 -23.117,-17.718 -23.117,-17.718 0,0 -2.422,13.281 6.25,29.269 m -22.633,17.121 c 3.153,13.449 12.684,17.457 12.684,17.457 0,0 5.09,-11.887 2.668,-22.797 -2.238,-10.082 -14.012,-18.453 -14.012,-18.453 0,0 -4.656,9.68 -1.34,23.793 m -32.277,17.457 c 0,0 9.527,-4.008 12.711,-17.457 3.308,-14.113 -1.344,-23.793 -1.344,-23.793 0,0 -11.789,8.371 -14.008,18.453 -2.429,10.91 2.641,22.797 2.641,22.797 M 81.7617,243.5 c 0,0 12.8789,-1.711 21.1603,-16.961 8.68,-15.988 6.25,-29.269 6.25,-29.269 0,0 -17.0431,6.238 -23.0822,17.718 -6.5507,12.43 -4.3281,28.512 -4.3281,28.512 m 2.1172,-46.27 C 102.199,180.527 105,162.359 105,162.359 c 0,0 -24.7187,0.411 -37.6406,12.489 -13.9492,13.062 -18.3086,34.742 -18.3086,34.742 0,0 17.3398,3.558 34.8281,-12.36 M 107.488,74.8477 C 101.5,70.1406 93.6211,68.0664 84.0313,67.918 c -11.4024,-0.1797 -23.9102,6.5 -29.8711,12.0898 -1.6094,1.3125 -4.4922,4.8906 -4.9493,5.5313 -1.0507,1.4297 -2.7421,3.8281 -3.4296,4.7617 -27.6407,37.8872 -15.8204,96.5472 -15.8204,96.5472 3.9102,-16.887 19.6797,-34.547 41.8907,-40.457 2.1679,-0.582 9.2578,-1.891 9.2578,-1.891 8.9297,-1.141 25.0316,-5.121 32.3316,-19 10.25,-19.57 10.008,-38.1211 -5.953,-50.6523 m 26.571,61.2113 c 0,0 -12.539,11.8 -12.75,34.589 -0.2,22.79 12.75,31.961 12.75,31.961 0,0 11.05,-6.039 12.461,-31.859 1.41,-25.82 -12.461,-34.691 -12.461,-34.691 M 224.66,90.3008 c -0.68,-0.9336 -2.379,-3.332 -3.422,-4.7617 -0.468,-0.6407 -3.347,-4.2188 -4.957,-5.5313 -5.961,-5.5898 -18.48,-12.2695 -29.859,-12.0898 -9.613,0.1484 -17.481,2.2226 -23.473,6.9297 -15.961,12.5312 -16.199,31.0823 -5.937,50.6523 7.277,13.879 23.398,17.859 32.328,19 0,0 7.082,1.309 9.25,1.891 22.211,5.91 37.98,23.57 41.898,40.457 0,0 11.813,-58.66 -15.828,-96.5472" /><path
         id="path18"
         style="fill:#37a984;fill-opacity:1;fill-rule:nonzero;stroke:none"
         d="m 345.969,226.91 h 6.961 v -52.199 h 26.836 v -6.461 h -33.797 v 58.66" /><path
         id="path20"
         style="fill:#37a984;fill-opacity:1;fill-rule:nonzero;stroke:none"
         d="m 406.445,226.91 h 6.543 l 24.93,-58.66 h -8.109 l -5.961,14.41 h -29.332 l -6.047,-14.41 h -7.871 z m 3.153,-8.949 h -0.172 l -12.18,-28.828 h 23.949 l -11.597,28.828" /><path
         id="path22"
         style="fill:#37a984;fill-opacity:1;fill-rule:nonzero;stroke:none"
         d="m 445.715,226.91 h 17.89 c 9.7,0 19.469,-3.648 19.469,-14.418 0,-6.793 -3.969,-11.351 -10.269,-13.25 v -0.172 c 7.539,-0.66 13.258,-6.711 13.258,-14.418 0,-12.922 -12.02,-16.402 -22.868,-16.402 h -17.48 z m 6.961,-24.859 h 9.609 c 6.539,0 13.34,1.41 13.34,9.531 0,7.211 -6.301,8.859 -12.621,8.859 h -10.328 z m 0,-27.34 h 11.758 c 6.8,0 14.171,2.738 14.171,10.191 0,8.207 -6.96,10.688 -14,10.688 h -11.929 v -20.879" /><path
         id="path24"
         style="fill:#37a984;fill-opacity:1;fill-rule:nonzero;stroke:none"
         d="m 494.504,197.582 c 0,17.727 12.84,30.816 30.629,30.816 17.84,0 30.68,-13.089 30.68,-30.816 0,-17.73 -12.84,-30.82 -30.68,-30.82 -17.789,0 -30.629,13.09 -30.629,30.82 m 53.848,0 c 0,13.508 -9.438,24.359 -23.219,24.359 -13.762,0 -23.168,-10.851 -23.168,-24.359 0,-13.504 9.406,-24.363 23.168,-24.363 13.781,0 23.219,10.859 23.219,24.363" /><path
         id="path26"
         style="fill:#37a984;fill-opacity:1;fill-rule:nonzero;stroke:none"
         d="m 566.992,226.91 h 15 c 11.352,0 23.363,-1.66 23.363,-16.16 0,-8.527 -5.562,-14.078 -14.671,-15.488 l 16.652,-27.012 h -8.531 l -15.903,26.352 h -8.961 V 168.25 h -6.949 z m 6.949,-25.847 h 6.211 c 7.723,0 17.743,0 17.743,9.687 0,8.449 -7.372,9.691 -14.161,9.691 h -9.793 v -19.378" /><path
         id="path28"
         style="fill:#37a984;fill-opacity:1;fill-rule:nonzero;stroke:none"
         d="m 636.66,226.91 h 6.543 l 24.93,-58.66 h -8.11 l -5.972,14.41 h -29.309 l -6.058,-14.41 h -7.871 z m 3.153,-8.949 h -0.172 l -12.18,-28.828 h 23.949 l -11.597,28.828" /><path
         id="path30"
         style="fill:#37a984;fill-opacity:1;fill-rule:nonzero;stroke:none"
         d="m 707.656,220.445 h -19.379 v -52.187 h -6.968 v 52.187 h -19.391 v 6.473 h 45.738 v -6.473" /><path
         id="path32"
         style="fill:#37a984;fill-opacity:1;fill-rule:nonzero;stroke:none"
         d="m 712.461,197.582 c 0,17.727 12.84,30.816 30.633,30.816 17.84,0 30.679,-13.089 30.679,-30.816 0,-17.73 -12.839,-30.82 -30.679,-30.82 -17.793,0 -30.633,13.09 -30.633,30.82 m 53.852,0 c 0,13.508 -9.481,24.359 -23.219,24.359 -13.762,0 -23.172,-10.851 -23.172,-24.359 0,-13.504 9.41,-24.363 23.172,-24.363 13.738,0 23.219,10.859 23.219,24.363" /><path
         id="path34"
         style="fill:#37a984;fill-opacity:1;fill-rule:nonzero;stroke:none"
         d="m 806.484,226.91 h 14.993 c 11.347,0 23.371,-1.66 23.371,-16.16 0,-8.527 -5.551,-14.078 -14.672,-15.488 l 16.66,-27.012 h -8.539 l -15.91,26.352 h -8.942 V 168.25 h -6.961 z m 6.961,-25.847 h 6.211 c 7.711,0 17.731,0 17.731,9.687 0,8.449 -7.371,9.691 -14.172,9.691 h -9.77 v -19.378" /><path
         id="path36"
         style="fill:#37a984;fill-opacity:1;fill-rule:nonzero;stroke:none"
         d="m 857.102,226.91 h 36.871 v -6.469 h -29.91 v -18.39 h 27.917 v -6.461 h -27.917 v -20.879 h 31.398 v -6.461 h -38.359 v 58.66" /><path
         id="path38"
         style="fill:#37a984;fill-opacity:1;fill-rule:nonzero;stroke:none"
         d="m 347.797,138.238 h 18.738 c 14.192,0 29.199,-2.078 29.199,-20.187 0,-10.672 -6.929,-17.602 -18.32,-19.3713 L 398.227,64.918 H 387.555 L 367.664,97.8594 H 356.496 V 64.918 h -8.699 z m 8.699,-32.308 h 7.758 c 9.633,0 22.152,0 22.152,12.121 0,10.558 -9.211,12.109 -17.691,12.109 h -12.219 v -24.23" /><path
         id="path40"
         style="fill:#37a984;fill-opacity:1;fill-rule:nonzero;stroke:none"
         d="m 411.059,138.238 h 46.078 v -8.078 h -37.379 v -22.992 h 34.887 V 99.0977 H 419.758 V 73 h 39.25 v -8.082 h -47.949 v 73.32" /><path
         id="path42"
         style="fill:#37a984;fill-opacity:1;fill-rule:nonzero;stroke:none"
         d="m 472.461,138.238 h 10.98 l 42.45,-60.8903 h 0.211 v 60.8903 h 8.691 V 64.918 H 523.82 L 481.383,125.82 H 481.16 V 64.918 h -8.699 v 73.32" /><path
         id="path44"
         style="fill:#37a984;fill-opacity:1;fill-rule:nonzero;stroke:none"
         d="m 576.848,138.238 h 8.168 l 31.172,-73.32 h -10.141 l -7.461,18.0312 H 561.938 L 554.379,64.918 h -9.844 z m 3.929,-11.179 h -0.199 L 565.355,91.0195 h 29.922 l -14.5,36.0395" /><path
         id="path46"
         style="fill:#37a984;fill-opacity:1;fill-rule:nonzero;stroke:none"
         d="m 660.715,125.297 c -2.902,4.656 -8.09,6.726 -13.36,6.726 -7.679,0 -15.621,-3.617 -15.621,-12.328 0,-6.722 3.731,-9.718 15.43,-13.449 11.379,-3.633 21.941,-7.3632 21.941,-21.7499 0,-14.6016 -12.531,-21.4297 -25.769,-21.4297 -8.512,0 -17.621,2.7891 -22.594,10.1367 l 7.453,6.1133 c 3.118,-5.3828 9.34,-8.1797 15.649,-8.1797 7.461,0 15.941,4.3477 15.941,12.7383 0,9.0117 -6.109,10.5586 -19.16,14.9102 -10.352,3.4178 -18.223,7.9688 -18.223,20.1918 0,14.089 12.114,21.117 24.953,21.117 8.18,0 15.129,-2.27 20.52,-8.59 l -7.16,-6.207" /><path
         id="path48"
         style="fill:#37a984;fill-opacity:1;fill-rule:nonzero;stroke:none"
         d="m 734.863,123.117 c -4.367,5.91 -11.289,8.91 -18.328,8.91 -16.359,0 -27.961,-14.398 -27.961,-30.449 0,-16.9803 11.5,-30.4413 27.961,-30.4413 8.899,0 16.039,3.6211 21.231,10.25 l 6.507,-5.4883 c -6.507,-8.8007 -16.039,-12.832 -27.738,-12.832 -21.039,0 -37.289,16.25 -37.289,38.5116 0,21.539 15.551,38.52 37.289,38.52 9.942,0 19.668,-3.422 25.891,-11.493 l -7.563,-5.488" /><path
         id="path50"
         style="fill:#37a984;fill-opacity:1;fill-rule:nonzero;stroke:none"
         d="m 752.16,101.578 c 0,22.16 16.039,38.52 38.301,38.52 22.269,0 38.32,-16.36 38.32,-38.52 0,-22.1483 -16.051,-38.5194 -38.32,-38.5194 -22.262,0 -38.301,16.3711 -38.301,38.5194 m 67.301,0 c 0,16.883 -11.801,30.442 -29,30.442 -17.191,0 -28.981,-13.559 -28.981,-30.442 0,-16.8671 11.79,-30.4374 28.981,-30.4374 17.199,0 29,13.5703 29,30.4374" /><path
         id="path52"
         style="fill:#37a984;fill-opacity:1;fill-rule:nonzero;stroke:none"
         d="m 842.766,138.238 h 18.738 c 14.191,0 29.199,-2.078 29.199,-20.187 0,-10.672 -6.93,-17.602 -18.316,-19.3713 L 893.195,64.918 H 882.523 L 862.637,97.8594 H 851.465 V 64.918 h -8.699 z m 8.699,-32.308 h 7.762 c 9.628,0 22.148,0 22.148,12.121 0,10.558 -9.219,12.109 -17.691,12.109 h -12.219 v -24.23" /><g
         transform="scale(10)"
         id="g54"><text
           id="text58"
           style="font-variant:normal;font-weight:normal;font-size:8.69999981px;font-family:MyriadPro;-inkscape-font-specification:MyriadPro-Regular;writing-mode:lr-tb;fill:#37a984;fill-opacity:1;fill-rule:nonzero;stroke:none"
           transform="matrix(1,0,0,-1,77.8422,16.8152)"><tspan
             id="tspan56"
             y="0"
             x="0">I</tspan></text>
</g></g></g></svg>